<?xml version="1.0" encoding="utf-8"?>
<!-- Generator: Adobe Illustrator 16.0.3, SVG Export Plug-In . SVG Version: 6.00 Build 0)  -->
<!DOCTYPE svg PUBLIC "-//W3C//DTD SVG 1.1//EN" "http://www.w3.org/Graphics/SVG/1.1/DTD/svg11.dtd">
<svg version="1.1" id="Capa_2" xmlns="http://www.w3.org/2000/svg" xmlns:xlink="http://www.w3.org/1999/xlink" x="0px" y="0px"
	 width="1374.705px" height="900.837px" viewBox="0 0 1374.705 900.837" enable-background="new 0 0 1374.705 900.837"
	 xml:space="preserve">
<path fill="#493b90" d="M1371.127,390.06c-33.57-160.13-295.58-244.8-613.9-211.15L765.797,0l-181.6,208.05l-31.2,35.74l-24.18,27.7
	l-59.56-12.76l-34.71-7.44l-157.72-33.8l39.94,81.92l0.74,1.53l69.21,141.95l-215.41,243.92c-28.1-31.67-46.62-67.53-53.63-106.95
	c-10.8-60.72,6.95-122.92,47.38-181.99C47.208,485.78-16.203,588.01,3.577,682.38c33.59,160.26,296.02,244.939,614.69,211.069
	c32.04-3.399,64.65-8,97.66-13.85c15.03-2.66,30.15-5.58,45.33-8.76c115.18-24.141,220.89-60.59,311.2-104.78
	c-64.851,23.66-135.24,42.72-209.54,55.94c-49.04,8.72-97.351,14.46-144.38,17.39l18.18-280.5l486.96-147.21
	c16.83,24.87,28.2,51.93,33.35,80.9c10.801,60.72-6.949,122.92-47.38,181.989C1327.498,586.66,1390.908,484.43,1371.127,390.06z
	 M192.227,708.03l288.49-79.14l110,211.57C419.507,832.24,275.627,784.51,192.227,708.03z M618.217,465.39l-13.11,126.5l-62.39-100
	l-105,29.5l73-87l-46.22-80.2l97.22,21.7l75-83l-11,98l120,34.67L618.217,465.39z M750.717,314.89l4.02-83.92
	c212.74,4.55,387.5,68.94,463.9,173.55L750.717,314.89z"/>
</svg>
